<svg xmlns="http://www.w3.org/2000/svg" width="800" height="450" viewBox="0 0 800 450">
  <defs>
    <linearGradient id="bg" x1="0%" y1="0%" x2="100%" y2="100%">
      <stop offset="0%" style="stop-color:#0f172a;stop-opacity:1" />
      <stop offset="100%" style="stop-color:#1e293b;stop-opacity:1" />
    </linearGradient>
  </defs>
  <rect width="800" height="450" fill="url(#bg)"/>
  <rect x="80" y="40" width="640" height="370" rx="8" fill="#1e293b" stroke="#334155" stroke-width="1"/>
  <rect x="80" y="40" width="640" height="32" rx="8" fill="#0f172a"/>
  <rect x="84" y="40" width="632" height="32" rx="6" fill="#0f172a"/>
  <text x="400" y="62" text-anchor="middle" font-family="Inter, system-ui, sans-serif" font-size="13" font-weight="600" fill="#94a3b8">CV Research Experience Manager v1.1.0</text>
  <circle cx="104" cy="56" r="6" fill="#ef4444" opacity="0.8"/>
  <circle cx="122" cy="56" r="6" fill="#f59e0b" opacity="0.8"/>
  <circle cx="140" cy="56" r="6" fill="#22c55e" opacity="0.8"/>
  <rect x="100" y="86" width="120" height="28" rx="4" fill="#2563eb" opacity="0.8"/>
  <text x="160" y="105" text-anchor="middle" font-family="Inter, system-ui, sans-serif" font-size="11" font-weight="600" fill="#fff">Update/Inject</text>
  <rect x="230" y="86" width="100" height="28" rx="4" fill="#334155"/>
  <text x="280" y="105" text-anchor="middle" font-family="Inter, system-ui, sans-serif" font-size="11" fill="#94a3b8">Redact</text>
  <rect x="340" y="86" width="100" height="28" rx="4" fill="#334155"/>
  <text x="390" y="105" text-anchor="middle" font-family="Inter, system-ui, sans-serif" font-size="11" fill="#94a3b8">Database</text>
  <rect x="100" y="130" width="280" height="30" rx="4" fill="#0f172a" stroke="#334155" stroke-width="1"/>
  <text x="115" y="150" font-family="Inter, system-ui, sans-serif" font-size="11" fill="#64748b">Select CV Document (.docx)...</text>
  <rect x="100" y="170" width="280" height="30" rx="4" fill="#0f172a" stroke="#334155" stroke-width="1"/>
  <text x="115" y="190" font-family="Inter, system-ui, sans-serif" font-size="11" fill="#64748b">Select Master List (.xlsx)...</text>
  <rect x="100" y="220" width="130" height="34" rx="4" fill="#2563eb"/>
  <text x="165" y="242" text-anchor="middle" font-family="Inter, system-ui, sans-serif" font-size="12" font-weight="600" fill="#fff">Run Update</text>
  <rect x="240" y="220" width="100" height="34" rx="4" fill="none" stroke="#2563eb" stroke-width="1.5"/>
  <text x="290" y="242" text-anchor="middle" font-family="Inter, system-ui, sans-serif" font-size="12" font-weight="500" fill="#2563eb">Preview</text>
  <rect x="420" y="130" width="280" height="245" rx="6" fill="#0f172a" stroke="#334155" stroke-width="1"/>
  <text x="440" y="155" font-family="Inter, system-ui, sans-serif" font-size="11" font-weight="600" fill="#94a3b8">Output Log</text>
  <text x="440" y="180" font-family="monospace" font-size="10" fill="#22c55e">[OK] Parsed 45 studies from CV</text>
  <text x="440" y="198" font-family="monospace" font-size="10" fill="#22c55e">[OK] Found 12 new studies</text>
  <text x="440" y="216" font-family="monospace" font-size="10" fill="#22c55e">[OK] Injected successfully</text>
  <text x="440" y="234" font-family="monospace" font-size="10" fill="#f59e0b">[INFO] 3 duplicates skipped</text>
  <text x="440" y="252" font-family="monospace" font-size="10" fill="#22c55e">[OK] Output saved</text>
  <text x="400" y="430" text-anchor="middle" font-family="Inter, system-ui, sans-serif" font-size="12" fill="#475569" font-style="italic">Screenshot coming soon</text>
</svg>
